<mxfile host="app.diagrams.net" modified="2022-03-17T08:07:39.592Z" agent="5.0 (Windows)" etag="NfHNGec_KCcug_iKEudp" version="17.1.2" type="github">
  <diagram id="GB8wIrCps_A8QAAzq_VX" name="Page-1">
    <mxGraphModel dx="1422" dy="1630" grid="1" gridSize="10" guides="1" tooltips="1" connect="1" arrows="1" fold="1" page="1" pageScale="1" pageWidth="1100" pageHeight="850" math="0" shadow="0">
      <root>
        <mxCell id="0" />
        <mxCell id="1" parent="0" />
        <mxCell id="VuhoeXik2h06cmbaGb0W-1" value="" style="shape=image;verticalLabelPosition=bottom;labelBackgroundColor=default;verticalAlign=top;aspect=fixed;imageAspect=0;image=data:image/png,iVBORw0KGgoAAAANSUhEUgAABW4AAAL8CAYAAABwPSzYAAAACXBIWXMAAA7EAAAOxAGVKw4bAAAAB3RJTUUH5gMRBwgjzD316gAAIABJREFUeJzs3X20VfV95/HPueCVKiIxD5AogcxotGrVxKmgoa21HaCZpiYxSDsPKyGYlVldaW00M7PGNQsfOmPX6lStazozzSSEtJ1pAprU2C4HaZpqSgLaSUQqxjxMAwrRayeIaIygcOePzeGec5+4XB7uV329XHfdc/bZ++zf2eA/b37nt1tXXHFFf2CQ7du354QTTpjoYQAAAADAa1LPRA8AAAAAAIBuwi0AAAAAQDHCLQAAAABAMcItAAAAAEAxwi0AAAAAQDHCLQAAAABAMcItAAAAAEAxwi0AAAAAQDGTx7rj4sWLc8cdd4y6z+wlN2f5ghkHnm9auSy3r0vmX70iS2eszU3XrcrWQxjc/KtXZOl5m7Jy2e1ZN//qrFh6XvrW3pTrVo3xXWYvyc3LF2RGx6b2mMZl//tlLGMY5tzpO/RrkCQZz2cHAAAAAF6xxhRuFy9efOD3iPF2/tVZvmDGQBidvSRLZiXJ7Jw6Y/hDDsm627NsnMF1IoPnwLnn5+oVS7N8xcwmRB/KmxzGZwcAAAAAXnkOGm7b0faOO+7I4sWLR4y3swfX2a2rsmrr7Cy5eXmaSbgLmmi5Mlm69Lz9gbf9+qYDMbOZZTvMQAbNOu2e3duXtTddl0NpsyMev/88baPO0G2Pqa8vM2Y07zVyJF6X21demBVLz8uF85N16waPoX0NmsDbHsGmlctye7o/+9BrtH/8sw5lPAAAAABAVWNa47YdakdbKmHrhofTl+S8pSuyYsXVmd9szarrbsravjTLBBxspun8q7P0vCY2Llu2/7gR9lu+YMb+/ZZl5aYZWbC8fc6hZixYnhUrVmTFipuzZPYYj9+0MsuWjW1ZhRl99xwY74wF7x1xHHniqfQlmXHq7P1jSNbetCzLlq3MppyXpVfPz/yrl+a89O3fPsz5x3CNxjweAAAAAKCkg4bbwbF2xHi7dVWuOxASz8vSFSty9SEWw/kXnpekLw9v2Jpka7aPEG6790vWfWNTkmYm63DagXbZsmZW7ViO73vqiTGPu9l35PGO/BlmZMHyFVnRnmE749Tkqb4D24e7foOv0YaHh550POMBAAAAAOo4aLhtL5Uw0vNuW7PqumVZdtPaZvbtSCV1VH3Z/mr9Zv+smZmRpO/ABxyYWbts2bIsu25V1q26LstWbkqyf/bysPX7VXyNAAAAAICxLZXQeXOykcxecnWzDEGH0Watzjh1dpJZmdmxNG73zNf5uXC4tW4P7DcjM2c1z5tZqJvyjTHewOtwjx+X2Utyc7PGQe5aNzCG8+fNPvD6knajXXf7/uUTRhp7+xrNzrzzj8Sd3wAAAACASg56c7LOm5K1nw+v+Xr/gvbTvrW5af9NsVbdsykLlu6/Odmyu7L23edlwYLlWbGgL33NygCNdbdn5YUrsnTpiqxYOsqg1t2em069OcsP7NeXtTcdZP3cI3n8IZixYHlWtC/KppVZ1l60tj2Gjtc3rVw16MZjm7Ly9nXJ/Au7xt55jfr6+nJgBu6so/ABAAAAAIBjrnXFFVf0j2XHxYsXj3pzMibC7Cy5eXkWZG1uum5VjuTqCdu3b88JJ5xwBN8RAAAAABirg864bRNti5i9JDcvX3BgknL6jny0BQAAAAAm1phn3PLaYsYtAAAAAEycMd2cDAAAAACAY0e4BQAAAAAoRrgFAAAAAChGuAUAAAAAKEa4BQAAAAAoZvJED4C6XnjhhYkeAgAAAAC8Jgm3DOvUU0+d6CEAAAAAwGtW6y039PdP9CAAAAAAABhgjVsAAAAAgGKEWwAAAACAYoRbAAAAAIBihFsAAAAAgGKEWwAAAACAYoRbAAAAAIBihFsAAAAAgGKEWwAAAACAYoRbAAAAAIBihFsAAAAAgGImH+0T3PmhpL9/4PniPxq6z7QpyW2XN7/bHu1LNj+VXHnBwPF3PJys3jj8eW5clJw9Y+D5Dfc2xw8+f9uuF5vXn9iZ3Pvt5nnbOTOTGxaO9RN2j/n6NUO3T5uSvPsnkwtPS556rtn2j9+QfPX/Jvd8q/vcw5k2JblqbrLwrOTcmc22r29pxn7r/cm2nc22296bnHbywHEbtia33Dfyew6+5u3rO21KsvDM5tpfMmfgfLteTD79QLJ+y+jjBQAAAODVbXJP8/PiyxM9klevox5uL549+uvTpiR3fHAgSCbJ5r4mOH5kXvfxG7aO/D7nzOzetx0kRzv/orMGHn9qQxNBd73YHNsOloei1ep+3tNKli9oPkfbrfc3vy8/p/m55Veac//2XyZ79w19z4VnNYH15Cnd29vjW3JBc/wN9zbR9c4Pdu/z9S3Dh9ZrL+3+/NueTdY81lzHFUuSWdOHP9+is5JVG5NrvjTMBQAAAABgXP7yXyebfpBce/dEj2TAjYuSbzyR3L25ef72NyRXzUvmvjX50Z5k5/7JiJufSv7k/ySP75y4sXa6eM7Qbeu3HONBHAFHPdyOZqRo+4HPHnwW6pH2kXlNrFy26si835TJyf0f654BO9q5f+knk5/7g+5/pThnZvKZJWM7vtVqZvveen9yzc8NvHbb5cmCT3Zfz4vnNDN4O334883vOz44NBIPtuSC5rd4CwAAAHD4vvCh5O+ebCYB3vnB5APDfGN9Ipx0fDLluObxx+Ynl52e3Lkpue3+5Mn93yp/3ZTkV9+ZfHpJ8oVNySfXT9x4k2Tx+cnHfib5h+e7t3/gsxMynMMyYWvcnja9TrRtW3RWszzAkTDWaNt22snNMZ2uvbT7+bZnmzB76/3N405XzW2u6S33Ndexbdb07vdpL5HQ6db7m38ZufbS7mi7a3ezNMKt93e/Z9LE2yN1rQAAAABeq774oeR3v9Ishbnt2eT37uv+RnUFV/xUMv345P2fTf70mwPRNkmeeTH5719vJg6+aWr3N88nwqzpyd2PNI2x8+eVaEJm3E6b0vwF7Pw6/rGKtqfeOPD4tP1R88rzB7ZdeUEzjs79kmaWauf/NOu3jvyH/t6fGhptd+1uljJY1bFG71XzkmnHd4zn5OTX3pl87pvN84Vndr/Hhz/fBNakWR7hzg8l5+xf13fbs81yBqs3Jh+/K1n70Y7zzG2WQVi/pfm8g697ex3cczoiepL81l3JvY81j2+5r1lDt32tdu0euj8AAAAAY/dnS5Pf+avkwceTd72t2bZh60C8rTDz9mf+UfLID5L/+FcH3/e3/7JZFvRfXpj8z28c/bGNx3E9yUlTkh0vTPRIDu6Yh9v28ggTEW0H27aziZyLzhoIqJ03OBuPViv5nX/WvW1zX3LFyuS53QPbbrkv+R/rky8sHYivSfJ772ni63Dr3S4+fyDc7nqxGfvFc5og296eNI+HWzLh1vuHLpHw8btG/ixXnt+8d/vP5fo1zTVb81j3+QAAAAA4NMf1JDd/OfnbJ4a+tmFrM4Hvp97cLKEwUU46Pjn/Lcn3dyTXXNps2/5ssuqhkY+59u7kO/8++eKm5IWXjskwD8lL+5K3vzH5xKU1wvhojvlSCdWWRxhs8A3GDtXMk5rP8+FVzTID33o6+dDnuqNt23O7m6C7a9BrP/mm5ve93+7e/pF5yYarmyB72vQmnn56w/AR9Zb7mlnBbbOmD10i4fp7hwbfTovOas53w8Jmdu2uF/cvxSDaAgAAAByWl/YNH23bdu2e2GibNBF21cakle6fg7nh3uSjlxzdsR2OzlnNlR3zcHvuoK/Xf/yuiYu206Y0UbJzuYLDjZL/6p80yxTcuDDp709+68+SHzw78v7P7W5msHZavH/t2PYSBp3aa9Y+cHUTwYe7S17bb901NAq3rd/aRN9Ot9w3dP+TpzTBeO1Hm4i7+PwAAAAA8BrQnsTX+fP5UWbbtm17NrnorUd3bIfrlRBvJ2SN2063Xp4s/OSxO9/260d/ffXG0V8/mBN7m9+zpjfB87ndySMHicHbdg6/ffNTzZTt33/v8Dc6u2RO8/P1LcmyVUMD+Ladzf9QNy7s3r5rdxN1B9v1YjNb+Lb3di/f0DZrejOWq+Yl13zJzFsAAACAV7Peycmelw/9uEeeHDp5c6IsvqB7ydbBHt+ZfOXXk8v+27Eb01gd8xm3g507M7lx0USPorH64cMPt0fa+i3J3N9PPv6lZlmJ4Vwyp5l9O23K0Nc+vWHocbfcN3osXvCHzfkGL9XQdu7M5nynjfKXHgAAAIBuUyYnbxlmct7BvGVaMuW4Iz+eg3nommT6Txz6cTteSC645ciPZzwGL/Mw+KcnTWiu6JjPuN3c18TEzvVWr5rbzBq9d9CSAU8MiovnjFLqB5fzQ11+4db7h1+a4FA99nT38wVnHvx9F541+nskTVBevbGJpR+Z16w/2zkL99yZyZUXDF3+IBl6LcYyU7bzfIvOas7Zeb6TpzRLNox2czMAAAAABlxwavKJn2++8TzYHQ+PfO+l29/XtKv1W47i4Ibxd082N0j7m78/9GP37jvy4xmP0SZpvmtOMvdnkyv/+JgN55Ac8xm3H/hsc8E+/UD39tsuHzqDc3C4PXuYr+8nzXGDlxIYKU7een/zs23QurODzzVef/Wd7uftoDqShWcNXZZg/Zbm97QpTfi99fKBtWy37UyuX5P80z/svvlY0gTWw7XwrGbd36vmDZzv0xuaWb+DZ+Beab1bAAAAgCPiiZ3J489M9Ci6rd+avPV1B9/v196ZXHNp989Jw3wzvJJ3vS35zcLRNpmAcNue/Xn9mu6v8J88JVmxpHvf9Vu6n8+aPhAUO900aKmFkZYUSLoXU+50w8Lhlxo4VE8/n2wfFIWvmpeccsLQfa+a1z3zOGmO3bKjmc36rX+XrPzVZMkFQ8e368Uj+68sF89p1v/9zJJmdu01Pzd0hvOnhpnNCwAAAMCr039dl/ynXzr4foOXH/jwTyf/+T1Hd2yH440nJr85P1lSONomE3xzso/fldz5oWTa8c3z9nq3168Z2Gf1w90zO29cmCw8cyBaXjnMAsPDLRcw2OqNzbEXz26et7/633nu8bryj5Ov/UbzeNfu5D/ck9zzkeZ5e2bvrOnDL4z8L/5X8/tTG5qw23lt1n602b75qebYZXO7jz2cWcPrtzSzkNszl0+e0qxju3pjsuaxJhpfe2n3MaMFcgAAAAC67X4pefLZg+832JPPJj/efeTHczAv72tucP9f3p/8xhdH3u9Pvznw+N9emvzvx5LJk4768Mbt7W9KlvzJRI/i4CY03G5+qgmlo613e8t9zRIA7YCZNDfjumTOCO/ZN/YbjN1yX3LnB7vPvXrj2NaAHc2WHckn/jz5vfc0n+/X3jkQaUe7i90n/jz57j80j3e9OPTazJo+dHZxp8Ndo3f5mmbGbdvJU5rZtx8ZZpbzkTgfAAAAwGvJQz9I/vp7yR+8L5k5bWzH/ODZ5MvfTTZO0A207nok+Ynjklt/Jbnm7tH3/d1fTv7i0WTGScklbzs24xuPr31/okcwNhMabpMmlF48p3tW7W2XJ/O2NPFy285mXdzOmbkj2dw3/OLOI1m/ZeiM3hsWJov/aOzvMZLPfTP53v9L3nbK2NaC/cSfN8d0Wr2xWa7gqrnDH9Pp419qrtXhuPex5n0GL98wnNUPD72ZHAAAAACj++LfJX//w+SE3rHt/8KeZOMPju6YDuZzDyV7+5P1v5nc863k8w8lj+9MelrJGW9ILnt78r5zkz/8evLVv08WT+B9kZ7YmXxs/sC37Ns+cAR637E24eE2aWaWXjKn+2v6K5YMBNTNTzU341pyQffyAW3bnm0i56c2DKyhO1aDZ/ReMqdZQmGss3ZH87ePJ1t3JH/7RPLTs0bY54nk17/Q/OvJcK5f0yxVcO2lQ//CJc0Nw2657/BnCbet3tjMeL720uGD8/qtzXUWbQEAAADGZ6JD7His3pis+Vbyzy9M/s1lTUubenyyZ28zOfJ9n0l2/LjZ94WXkp0/nphx3vHw0PtPvVK13nJDf/9ED+JQndaxPuwTOw9/pumxMGVy8o7Turc9tC158eVDe59zZg7cpGz9liMxsrGfb/NThx7GAQAAAIBD94oMtwAAAAAAr2Y9Ez0AAAAAAAC6CbcAAAAAAMUItwAAAAAAxQi3AAAAAADFCLcAAAAAAMUItwAAAAAAxQi3AAAAAADFCLcAAAAAAMUItwAAAAAAxQi3AAAAAADFtB599NH+F154IT/+8Y+zZ8+evPzyy9m3b1/6+/snemwAAAAAAK8JrVYrPT09mTx5cnp7ezP5+OOPz759+9LT05Pe3t7s3bs3e/fuTZKueCvkAgAAAAAcGa1Wa8jjSZMmZdKkSTnuuOOacNvf359Jkyalt7c3+/bty759+5IMjbXiLQAAAADA4emMtp3Pe3p60tPTk0mTJmVyb29vWq1WjjvuuOzduzf9/f0jhlsAAAAAAI6sznDbarUGwu2kSZOyd+/eA7Nt+/v7RVsAAAAAgGOk1WodWOd2/1q3kw9Mv23H2vaM28HEXAAAAACAwzN4qYS2np6eA69Pnjx5cte6tslAoBVqAQAAAACOrnbI7Qy6kydNmnRg3YQ24RYAAAAA4NgYNty2o+1ApH06G/74kbz+/Zfl9BO7w+0PH7wjG095d37h9BOP1ZgBAAAAAF7Vhls6YXJnzW3ibav5r9VKT0/3AT09rbT2L44LAAAAAMCR12q1Mnnwhs5wOzj0tloDdzcDAAAAAODomDw0wrYOxNmh4bbVFW537/h+Hlr3UL6746Wkd3rOuOiizDv9dc3Oz38/X/7Knpxzwc48tG5LntxzXN58+kX5hflvyo4H1+Wr3/uHPJ/pOafzmCTPPf5AHli3PVv3vJTeU+Zk3vx35IxTeo/iJQAAAAAAqKW1b9++QXcgezobPvvX2TzCAbPn/3J+8fQTkx0P5c/WPJNzF81vwuqep/PImnV5/PSFeffZJzbh9s4H89zp78q755+W4/c8k0e+sjbfff6EnHT2ZfnFs09Mnv92vnz35sxc9P6ce0qy+/F1Wf3gcfnFRXPz5qnJ7h3fzt+s2Z4zfuWyzJ561K8FAAAAAEAJk4ff/Mb87AcuyxmDYukPH1yVh/Y/fvLR7yQX/PLAbNjeN+Xc+W/Pd9d8Jz88+x15fZLk1LzzotNyfJL0vi5nnP7GPLDx1CbaJsnUM3POWzdm844f5dxTkscffDrvuOz9efP+8x5/ypmZe8F3cs+jz2T2Ra8LAAAAAMBrwQjh9mB+lOefT958+ondm3tPzEl7vp8dz2d/uD0xUwevcjC1N52beg88+VF++PxL2Xz3qjww+HRnvzS+YQIAAAAAvAKNM9yemKlTk0d2/CiZ2RFv9/woz/W+LqdMTfL8ob/n66eekJ9d9J4hM30BAAAAAF5Lxn1zsrecc2Zaax7M997cscbt176baXMX5g2tVtKxb2uY44duOzGz556S1V/7Tl5/2Zl5fW+S57dlw5qHMvWy9+TcU47uhQAAAAAAqGKcM26TnPKOvPuyb+eBdX+Rr+54Kb2903PGRT/f3LhsnI5/6/y8Nw/kgTu/mK17Xkrv1DfmHfMXirYAAAAAwGtKq7+/v3+iBwEAAAAAwICeiR4AAAAAAADdhFsAAAAAgGKEWwAAAACAYoRbAAAAAIBihFsAAAAAgGKEWwAAAACAYoRbAAAAAIBiJj/zzDMTPQYAAAAAADq0+vv7+yd6EAAAAAAADLBUAgAAAABAMcItAAAAAEAxwi0AAAAAQDHCLQAAAABAMcItAAAAAEAxwi0AAAAAQDHCLQAAAABAMcItAAAAAEAxwi0AAAAAQDHCLQAAAABAMcItAAAAAEAxwi0AAAAAQDHCLQAAAABAMcItAAAAAEAxwi0AAAAAQDHCLQAAAADAUdLf3z+u44RbAAAAAIBihFsAAAAAgGKEWwAAAACAo2g8yyUItwAAAAAAxQi3AAAAAADFCLcAAAAAAMUItwAAAAAAxQi3AAAAAADFCLcAAAAAAMUItwAAAAAAxQi3AAAAAADFCLcAAAAAAMUItwAAAAAAxQi3AAAAAADFCLcAAAAAAMUItwAAAAAAxQi3AAAAAADFCLcAAAAAAMUItwAAAAAAxQi3AAAAAADFCLcAAAAAAMUItwAAAAAAxQi3AAAAAADFCLcAAAAAAMUItwAAAAAAxQi3AAAAAADFCLcAAAAAAMUItwAAAAAAxQi3AAAAAADFCLcAAAAAAMUItwAAAAAAxQi3AAAAAADFCLcAAAAAAMUItwAAAAAAxQi3AAAAAADFCLcAAAAAAMUItwAAAAAAxQi3AAAAAADFCLcAAAAAAMUItwAAAAAAxQi3AAAAAADFCLcAAAAAAMUItwAAAAAAxQi3AAAAAADFCLcAAAAAAMUItwAAAAAAxQi3AAAAAADFCLcAAAAAAMUItwAAAAAAxQi3AAAAAADFCLcAAAAAAMUItwAAAAAAxQi3AAAAAADFCLcAAAAAAMUItwAAAAAAxQi3AAAAAADFCLcAAAAAAMUItwAAAAAAxQi3AAAAAADFCLcAAAAAAMUItwAAAAAAxQi3AAAAAADFCLcAAAAAAMUItwAAAAAAxQi3AAAAAADFCLcAAAAAAMUItwAAAAAAxQi3AAAAAADFCLcAAAAAAMUItwAAAAAAxQi3AAAAAADFCLcAAAAAAEdRq9U65GOEWwAAAACAYoRbAAAAAIBihFsAAAAAgKNkPMskJMItAAAAAEA5wi0AAAAAQDHCLQAAAABAMcItAAAAAEAxwi0AAAAAQDHCLQAAAABAMcItAAAAAEAxwi0AAAAAwFHS398/ruOEWwAAAACAYoRbAAAAAIBihFsAAAAAgKNoPMslCLcAAAAAAMUItwAAAAAAxQi3AAAAAADFCLcAAAAAAMUItwAAAAAAxQi3AAAAAADFCLcAAAAAAMUItwAAAAAAxQi3AAAAAADFCLcAAAAAAMUItwAAAAAAxQi3AAAAAADFCLcAAAAAAMUItwAAAAAAxQi3AAAAAADFCLcAAAAAAMUItwAAAAAAxQi3AAAAAADFCLcAAAAAAMUItwAAAAAAxQi3AAAAAADFCLcAAAAAAMUItwAAAAAAxQi3AAAAAADFCLcAAAAAAMUItwAAAAAAxQi3AAAAAADFCLcAAAAAAMUItwAAAAAAxQi3AAAAAADFCLcAAAAAAMUItwAAAAAAxQi3AAAAAADFCLcAAAAAAMUItwAAAAAAxQi3AAAAAADFCLcAAAAAAMUItwAAAAAAxQi3AAAAAADFCLcAAAAAAMUItwAAAAAAxQi3AAAAAADFCLcAAAAAAMUItwAAAAAAxQi3AAAAAADFCLcAAAAAAMUItwAAAAAAxQi3AAAAAADFCLcAAAAAAMUItwAAAAAAxQi3AAAAAADFCLcAAAAAAMUItwAAAAAAxQi3AAAAAADFCLcAAAAAAMUItwAAAAAAxQi3AAAAAADFCLcAAAAAAMUItwAAAAAAxQi3AAAAAADFCLcAAAAAAMUItwAAAAAAxQi3AAAAAADFCLcAAAAAAMUItwAAAAAAxQi3AAAAAADFCLcAAAAAAMUItwAAAAAAxQi3AAAAAABHUavVOuRjhFsAAAAAgGKEWwAAAACAYoRbAAAAAICjZDzLJCTCLQAAAABAOcItAAAAAEAxwi0AAAAAQDHCLQAAAABAMcItAAAAAEAxwi0AAAAAQDHCLQAAAABAMcItAAAAAEAxwi0AAAAAQDHCLQAAAABAMcItAAAAAEAxwi0AAAAAQDHCLQAAAABAMcItAAAAAEAxwi0AAAAAQDHCLQAAAABAMcItAAAAAEAxwi0AAAAAQDHCLQAAAABAMcItAAAAAEAxwi0AAAAAQDHCLQAAAABAMcItAAAAAEAxwi0AAAAAQDHCLQAAAABAMcItAAAAAEAxwi0AAAAAQDHCLQAAAABAMcItAAAAAEAxwi0AAAAAQDHCLQAAAABAMcItAAAAAEAxwi0AAAAAQDHCLQAAAABAMcItAAAAAEAxwi0AAAAAQDHCLQAAAABAMcItAAAAAEAxwi0AAAAAQDHCLQAAAABAMcItAAAAAEAxwi0AAAAAQDHCLQAAAABAMcItAAAAAEAxwi0AAAAAQDHCLQAAAABAMcItAAAAAEAxwi0AAAAAQDHCLQAAAABAMcItAAAAAEAxwi0AAAAAQDHCLQAAAABAMcItAAAAAEAxwi0AAAAAQDHCLQAAAABAMcItAAAAAEAxwi0AAAAAQDHCLQAAAABAMcItAAAAAEAxwi0AAAAAQDHCLQAAAABAMcItAAAAAEAxwi0AAAAAQDHCLQAAAABAMcItAAAAAEAxwi0AAAAAQDHCLQAAAABAMcItAAAAAEAxwi0AAAAAQDHCLQAAAABAMcItAAAAAEAxwi0AAAAAQDHCLQAAAABAMcItAAAAAEAxwi0AAAAAQDHCLQAAAABAMcItAAAAAEAxwi0AAAAAQDHCLQAAAABAMcItAAAAAEAxwi0AAAAAQDHCLQAAAABAMcItAAAAAEAxwi0AAAAAQDHCLQAAAABAMcItAAAAAEAxwi0AAAAAQDHCLQAAAABAMcItAAAAAEAxwi0AAAAAQDHCLQAAAABAMcItAAAAAEAxwi0AAAAAQDHCLQAAAABAMcItAAAAAEAxwi0AAAAAQDHCLQAAAABAMcItAAAAAEAxwi0AAAAAQDHCLQAAAABAMcItAAAAAEAxwi0AAAAAQDHCLQAAAABAMcItAAAAAEAxwi0AAAAAQDHCLQAAAABAMcItAAAAAEAxwi0AAAAAQDHCLQAAAABAMcItAAAAAEAxwi0AAAAAQDHCLQAAAABAMcItAAAAAEAxwi0AAAAAQDHCLQAAAABAMcItAAAAAEAxwi0AAAAAQDHCLQAAAABAMcItAAAAAEAxwi0AAAAAQDHCLQAAAABAMcItAAAAAEAxwi0AAAAAQDHCLQAAAABAMcItAAAAAEAxwi0AAAAyNfa8AAALXElEQVQAQDHCLQAAAABAMcItAAAAAEAxwi0AAAAAQDHCLQAAAABAMcItAAAAAEAxwi0AAAAAQDHCLQAAAABAMcItAAAAAEAxwi0AAAAAQDHCLQAAAABAMcItAAAAAEAxwi0AAAAAQDHCLQAAAABAMcItAAAAAEAxwi0AAAAAQDHCLQAAAABAMcItAAAAAEAxwi0AAAAAQDHCLQAAAABAMcItAAAAAEAxwi0AAAAAQDHCLQAAAABAMcItAAAAAEAxwi0AAAAAQDHCLQAAAABAMcItAAAAAEAxwi0AAAAAQDHCLQAAAABAMcItAAAAAEAxwi0AAAAAQDHCLQAAAABAMcItAAAAAEAxwi0AAAAAQDHCLQAAAABAMcItAAAAAEAxwi0AAAAAQDHCLQAAAABAMcItAAAAAEAxwi0AAAAAQDHCLQAAAABAMcItAAAAAEAxwi0AAAAAQDHCLQAAAABAMcItAAAAAEAxwi0AAAAAQDHCLQAAAABAMcItAAAAAEAxwi0AAAAAQDHCLQAAAABAMcItAAAAAEAxwi0AAAAAQDHCLQAAAABAMcItAAAAAEAxwi0AAAAAQDHCLQAAAABAMcItAAAAAEAxwi0AAAAAQDHCLQAAAABAMcItAAAAAEAxwi0AAAAAQDHCLQAAAABAMcItAAAAAEAxwi0AAAAAQDHCLQAAAABAMcItAAAAAEAxwi0AAAAAQDHCLQAAAABAMcItAAAAAEAxwi0AAAAAQDHCLQAAAABAMcItAAAAAEAxwi0AAAAAQDHCLQAAAABAMcItAAAAAEAxwi0AAAAAQDHCLQAAAABAMcItAAAAAEAxwi0AAAAAQDHCLQAAAABAMcItAAAAAEAxwi0AAAAAQDHCLQAAAABAMcItAAAAAEAxwi0AAAAAQDHCLQAAAABAMcItAAAAAEAxwi0AAAAAQDHCLQAAAABAMcItAAAAAEAxwi0AAAAAQDHCLQAAAABAMcItAAAAAEAxwi0AAAAAQDHCLQAAAABAMcItAAAAAEAxwi0AAAAAQDHCLQAAAABAMcItAAAAAEAxwi0AAAAAQDHCLQAAAABAMcItAAAAAEAxwi0AAAAAQDHCLQAAAABAMcItAAAAAEAxwi0AAAAAQDHCLQAAAABAMcItAAAAAEAxwi0AAAAAQDHCLQAAAABAMcItAAAAAEAxwi0AAAAAQDHCLQAAAABAMcItAAAAAEAxwi0AAAAAQDHCLQAAAABAMcItAAAAAEAxwi0AAAAAQDHCLQAAAABAMcItAAAAAEAxwi0AAAAAQDHCLQAAAABAMcItAAAAAEAxwi0AAAAAQDHCLQAAAABAMcItAAAAAEAxwi0AAAAAQDHCLQAAAABAMcItAAAAAEAxwi0AAAAAQDHCLQAAAABAMcItAAAAAEAxwi0AAAAAQDHCLQAAAABAMcItAAAAAEAxwi0AAAAAQDHCLQAAAABAMcItAAAAAEAxwi0AAAAAQDHCLQAAAABAMcItAAAAAEAxwi0AAAAAQDHCLQAAAABAMcItAAAAAEAxwi0AAAAAQDHCLQAAAABAMcItAAAAAEAxwi0AAAAAQDHCLQAAAABAMcItAAAAAEAxwi0AAAAAQDHCLQAAAABAMcItAAAAAEAxwi0AAAAAQDHCLQAAAABAMcItAAAAAEAxwi0AAAAAQDHCLQAAAABAMcItAAAAAEAxwi0AAAAAQDHCLQAAAABAMcItAAAAAEAxwi0AAAAAQDHCLQAAAABAMcItAAAAAEAxwi0AAAAAQDHCLQAAAABAMcItAAAAAEAxwi0AAAAAQDHCLQAAAABAMcItAAAAAEAxwi0AAAAAQDHCLQAAAABAMcItAAAAAEAxwi0AAAAAQDHCLQAAAABAMcItAAAAAEAxwi0AAAAAQDHCLQAAAABAMcItAAAAAEAxwi0AAAAAQDHCLQAAAABAMcItAAAAAEAxwi0AAAAAQDHCLQAAAABAMcItAAAAAEAxwi0AAAAAQDHCLQAAAP+/HTsWAAAAABjkbz2NHYURADAjbgEAAAAAZsQtAAAAAMCMuAUAAAAAmBG3AAAAAAAz4hYAAAAAYEbcAgAAAADMiFsAAAAAgBlxCwAAAAAwI24BAAAAAGbELQAAAADAjLgFAAAAAJgRtwAAAAAAM+IWAAAAAGBG3AIAAAAAzIhbAAAAAIAZcQsAAAAAMCNuAQAAAABmxC0AAAAAwIy4BQAAAACYEbcAAAAAADPiFgAAAABgRtwCAAAAAMyIWwAAAACAGXELAAAAADAjbgEAAAAAZsQtAAAAAMCMuAUAAAAAmBG3AAAAAAAz4hYAAAAAYEbcAgAAAADMiFsAAAAAgBlxCwAAAAAwI24BAAAAAGbELQAAAADAjLgFAAAAAJgRtwAAAAAAM+IWAAAAAGBG3AIAAAAAzIhbAAAAAIAZcQsAAAAAMCNuAQAAAABmxC0AAAAAwIy4BQAAAACYEbcAAAAAADPiFgAAAABgRtwCAAAAAMyIWwAAAACAGXELAAAAADAjbgEAAAAAZsQtAAAAAMCMuAUAAAAAmBG3AAAAAAAz4hYAAAAAYEbcAgAAAADMiFsAAAAAgBlxCwAAAAAwI24BAAAAAGbELQAAAADAjLgFAAAAAJgRtwAAAAAAM+IWAAAAAGBG3AIAAAAAzIhbAAAAAIAZcQsAAAAAMCNuAQAAAABmxC0AAAAAwIy4BQAAAACYEbcAAAAAADPiFgAAAABgRtwCAAAAAMyIWwAAAACAGXELAAAAADAjbgEAAAAAZsQtAAAAAMCMuAUAAAAAmBG3AAAAAAAz4hYAAAAAYEbcAgAAAADMiFsAAAAAgBlxCwAAAAAwI24BAAAAAGbELQAAAADAjLgFAAAAAJgRtwAAAAAAM+IWAAAAAGBG3AIAAAAAzIhbAAAAAIAZcQsAAAAAMCNuAQAAAABmxC0AAAAAwIy4BQAAAACYEbcAAAAAADPiFgAAAABgRtwCAAAAAMyIWwAAAACAGXELAAAAADAjbgEAAAAAZsQtAAAAAMCMuAUAAAAAmBG3AAAAAAAz4hYAAAAAYEbcAgAAAADMiFsAAAAAgBlxCwAAAAAwI24BAAAAAGbELQAAAADAjLgFAAAAAJgRtwAAAAAAM+IWAAAAAGBG3AIAAAAAzIhbAAAAAIAZcQsAAAAAMCNuAQAAAABmxC0AAAAAwIy4BQAAAACYEbcAAAAAADPiFgAAAABgRtwCAAAAAMyIWwAAAACAGXELAAAAADAjbgEAAAAAZsQtAAAAAMCMuAUAAAAAmBG3AAAAAAAz4hYAAAAAYEbcAgAAAADMiFsAAAAAgBlxCwAAAAAwI24BAAAAAGbELQAAAADAjLgFAAAAAJgRtwAAAAAAM+IWAAAAAGBG3AIAAAAAzIhbAAAAAIAZcQsAAAAAMCNuAQAAAABmxC0AAAAAwIy4BQAAAACYEbcAAAAAADPiFgAAAABgRtwCAAAAAMyIWwAAAACAGXELAAAAADAjbgEAAAAAZsQtAAAAAMCMuAUAAAAAmBG3AAAAAAAz4hYAAAAAYEbcAgAAAADMiFsAAAAAgBlxCwAAAAAwI24BAAAAAGbELQAAAADAjLgFAAAAAJgRtwAAAAAAM+IWAAAAAGBG3AIAAAAAzIhbAAAAAIAZcQsAAAAAMCNuAQAAAABmxC0AAAAAwIy4BQAAAACYEbcAAAAAADPiFgAAAABgRtwCAAAAAMyIWwAAAACAGXELAAAAADAjbgEAAAAAZsQtAAAAAMCMuAUAAAAAmBG3AAAAAAAz4hYAAAAAYEbcAgAAAADMiFsAAAAAgBlxCwAAAAAwI24BAAAAAGbELQAAAADAjLgFAAAAAJgRtwAAAAAAM+IWAAAAAGBG3AIAAAAAzASLk/O1EpmEqwAAAABJRU5ErkJggg==;" vertex="1" parent="1">
          <mxGeometry y="-4" width="1390" height="764" as="geometry" />
        </mxCell>
        <mxCell id="VuhoeXik2h06cmbaGb0W-91" value="" style="rounded=1;whiteSpace=wrap;html=1;labelBackgroundColor=default;fontFamily=Helvetica;fontSize=12;fontColor=default;strokeColor=default;fillColor=default;dashed=1;dashPattern=1 2;strokeWidth=2;" vertex="1" parent="1">
          <mxGeometry x="440" y="160" width="90" height="120" as="geometry" />
        </mxCell>
        <mxCell id="VuhoeXik2h06cmbaGb0W-2" value="" style="strokeWidth=1;shadow=0;dashed=0;align=center;html=1;shape=mxgraph.mockup.containers.rrect;rSize=0;strokeColor=#666666;" vertex="1" parent="1">
          <mxGeometry y="90" width="200" height="670" as="geometry" />
        </mxCell>
        <mxCell id="VuhoeXik2h06cmbaGb0W-3" value="Data" style="strokeColor=inherit;fillColor=inherit;gradientColor=inherit;strokeWidth=1;shadow=0;dashed=0;align=center;html=1;shape=mxgraph.mockup.containers.rrect;rSize=0;fontSize=17;fontColor=#666666;fontStyle=1;resizeWidth=1;" vertex="1" parent="VuhoeXik2h06cmbaGb0W-2">
          <mxGeometry width="200" height="26" relative="1" as="geometry" />
        </mxCell>
        <mxCell id="VuhoeXik2h06cmbaGb0W-4" value="Types" style="strokeColor=inherit;fillColor=inherit;gradientColor=inherit;strokeWidth=1;shadow=0;dashed=0;align=center;html=1;shape=mxgraph.mockup.containers.rrect;rSize=0;fontSize=17;fontColor=#666666;fontStyle=1;resizeWidth=1;" vertex="1" parent="VuhoeXik2h06cmbaGb0W-2">
          <mxGeometry width="200" height="26" relative="1" as="geometry">
            <mxPoint y="26" as="offset" />
          </mxGeometry>
        </mxCell>
        <mxCell id="VuhoeXik2h06cmbaGb0W-5" value="Logic" style="strokeWidth=1;shadow=0;dashed=0;align=center;html=1;shape=mxgraph.mockup.containers.rrect;rSize=0;fontSize=17;fontColor=#ffffff;fontStyle=1;fillColor=#008cff;strokeColor=#008cff;resizeWidth=1;" vertex="1" parent="VuhoeXik2h06cmbaGb0W-2">
          <mxGeometry width="200" height="26" relative="1" as="geometry">
            <mxPoint y="52" as="offset" />
          </mxGeometry>
        </mxCell>
        <mxCell id="VuhoeXik2h06cmbaGb0W-6" value="Custom" style="strokeColor=inherit;fillColor=inherit;gradientColor=inherit;strokeWidth=1;shadow=0;dashed=0;align=center;html=1;shape=mxgraph.mockup.containers.rrect;rSize=0;fontSize=17;fontColor=#666666;fontStyle=1;resizeWidth=1;" vertex="1" parent="VuhoeXik2h06cmbaGb0W-2">
          <mxGeometry y="1" width="200" height="26" relative="1" as="geometry">
            <mxPoint y="-26" as="offset" />
          </mxGeometry>
        </mxCell>
        <mxCell id="VuhoeXik2h06cmbaGb0W-54" value="" style="strokeColor=#999999;verticalLabelPosition=bottom;shadow=0;dashed=0;verticalAlign=top;strokeWidth=2;html=1;shape=mxgraph.mockup.misc.editIcon;" vertex="1" parent="VuhoeXik2h06cmbaGb0W-2">
          <mxGeometry x="30" y="100" width="50" height="50" as="geometry" />
        </mxCell>
        <mxCell id="VuhoeXik2h06cmbaGb0W-55" value="" style="strokeColor=#999999;verticalLabelPosition=bottom;shadow=0;dashed=0;verticalAlign=top;strokeWidth=2;html=1;shape=mxgraph.mockup.misc.shareIcon;" vertex="1" parent="VuhoeXik2h06cmbaGb0W-2">
          <mxGeometry x="120" y="100" width="50" height="50" as="geometry" />
        </mxCell>
        <mxCell id="VuhoeXik2h06cmbaGb0W-136" value="IF?" style="rhombus;whiteSpace=wrap;html=1;dashed=1;dashPattern=1 2;labelBackgroundColor=default;fontFamily=Helvetica;fontSize=12;fontColor=default;strokeColor=default;strokeWidth=2;fillColor=default;" vertex="1" parent="VuhoeXik2h06cmbaGb0W-2">
          <mxGeometry x="30.5" y="180" width="49.5" height="49.5" as="geometry" />
        </mxCell>
        <mxCell id="VuhoeXik2h06cmbaGb0W-40" value="" style="strokeWidth=1;shadow=0;dashed=0;align=center;html=1;shape=mxgraph.mockup.forms.rrect;rSize=0;strokeColor=#999999;fillColor=#ffffff;" vertex="1" parent="1">
          <mxGeometry x="700" y="90" width="200" height="60" as="geometry" />
        </mxCell>
        <mxCell id="VuhoeXik2h06cmbaGb0W-47" value="Undo" style="strokeWidth=1;shadow=0;dashed=0;align=center;html=1;shape=mxgraph.mockup.forms.rrect;rSize=5;strokeColor=none;fontColor=#ffffff;fillColor=#66bbff;fontSize=16;fontStyle=1;" vertex="1" parent="VuhoeXik2h06cmbaGb0W-40">
          <mxGeometry y="1" width="50" height="30" relative="1" as="geometry">
            <mxPoint x="10" y="-45" as="offset" />
          </mxGeometry>
        </mxCell>
        <mxCell id="VuhoeXik2h06cmbaGb0W-52" value="Redo" style="strokeWidth=1;shadow=0;dashed=0;align=center;html=1;shape=mxgraph.mockup.forms.rrect;rSize=5;strokeColor=none;fontColor=#ffffff;fillColor=#66bbff;fontSize=16;fontStyle=1;" vertex="1" parent="VuhoeXik2h06cmbaGb0W-40">
          <mxGeometry x="70" y="15" width="50" height="30" as="geometry" />
        </mxCell>
        <mxCell id="VuhoeXik2h06cmbaGb0W-53" value="Run" style="strokeWidth=1;shadow=0;dashed=0;align=center;html=1;shape=mxgraph.mockup.forms.rrect;rSize=5;strokeColor=none;fontColor=#ffffff;fillColor=#66bbff;fontSize=16;fontStyle=1;" vertex="1" parent="VuhoeXik2h06cmbaGb0W-40">
          <mxGeometry x="130" y="15" width="60" height="30" as="geometry" />
        </mxCell>
        <mxCell id="VuhoeXik2h06cmbaGb0W-59" style="edgeStyle=orthogonalEdgeStyle;rounded=0;orthogonalLoop=1;jettySize=auto;html=1;" edge="1" parent="1" source="VuhoeXik2h06cmbaGb0W-56" target="VuhoeXik2h06cmbaGb0W-58">
          <mxGeometry relative="1" as="geometry" />
        </mxCell>
        <mxCell id="VuhoeXik2h06cmbaGb0W-56" value="" style="shape=cylinder3;whiteSpace=wrap;html=1;boundedLbl=1;backgroundOutline=1;size=15;" vertex="1" parent="1">
          <mxGeometry x="290" y="387" width="60" height="80" as="geometry" />
        </mxCell>
        <mxCell id="VuhoeXik2h06cmbaGb0W-57" value="Datasource" style="text;html=1;strokeColor=none;fillColor=none;align=center;verticalAlign=middle;whiteSpace=wrap;rounded=0;" vertex="1" parent="1">
          <mxGeometry x="290" y="467" width="60" height="30" as="geometry" />
        </mxCell>
        <mxCell id="VuhoeXik2h06cmbaGb0W-82" style="edgeStyle=orthogonalEdgeStyle;rounded=0;orthogonalLoop=1;jettySize=auto;html=1;entryX=0;entryY=0.5;entryDx=0;entryDy=0;fontFamily=Helvetica;fontSize=12;fontColor=default;" edge="1" parent="1" source="VuhoeXik2h06cmbaGb0W-58" target="VuhoeXik2h06cmbaGb0W-80">
          <mxGeometry relative="1" as="geometry" />
        </mxCell>
        <mxCell id="VuhoeXik2h06cmbaGb0W-84" style="edgeStyle=orthogonalEdgeStyle;rounded=0;orthogonalLoop=1;jettySize=auto;html=1;exitX=1;exitY=0.75;exitDx=0;exitDy=0;entryX=0;entryY=0.5;entryDx=0;entryDy=0;fontFamily=Helvetica;fontSize=12;fontColor=default;" edge="1" parent="1" source="VuhoeXik2h06cmbaGb0W-58" target="VuhoeXik2h06cmbaGb0W-83">
          <mxGeometry relative="1" as="geometry" />
        </mxCell>
        <mxCell id="VuhoeXik2h06cmbaGb0W-58" value="Array Subset" style="rounded=1;whiteSpace=wrap;html=1;" vertex="1" parent="1">
          <mxGeometry x="380" y="397" width="120" height="60" as="geometry" />
        </mxCell>
        <mxCell id="VuhoeXik2h06cmbaGb0W-63" style="edgeStyle=orthogonalEdgeStyle;rounded=0;orthogonalLoop=1;jettySize=auto;html=1;entryX=0.25;entryY=0;entryDx=0;entryDy=0;" edge="1" parent="1" source="VuhoeXik2h06cmbaGb0W-60" target="VuhoeXik2h06cmbaGb0W-58">
          <mxGeometry relative="1" as="geometry">
            <Array as="points">
              <mxPoint x="410" y="357" />
            </Array>
          </mxGeometry>
        </mxCell>
        <mxCell id="VuhoeXik2h06cmbaGb0W-60" value="1" style="rounded=1;whiteSpace=wrap;html=1;" vertex="1" parent="1">
          <mxGeometry x="300" y="337" width="40" height="30" as="geometry" />
        </mxCell>
        <mxCell id="VuhoeXik2h06cmbaGb0W-64" value="num" style="text;html=1;strokeColor=none;fillColor=none;align=center;verticalAlign=middle;whiteSpace=wrap;rounded=0;" vertex="1" parent="1">
          <mxGeometry x="290" y="312" width="60" height="30" as="geometry" />
        </mxCell>
        <mxCell id="VuhoeXik2h06cmbaGb0W-69" style="edgeStyle=orthogonalEdgeStyle;rounded=0;orthogonalLoop=1;jettySize=auto;html=1;entryX=0.5;entryY=0;entryDx=0;entryDy=0;fontFamily=Helvetica;fontSize=12;fontColor=default;" edge="1" parent="1" source="VuhoeXik2h06cmbaGb0W-65" target="VuhoeXik2h06cmbaGb0W-58">
          <mxGeometry relative="1" as="geometry" />
        </mxCell>
        <mxCell id="VuhoeXik2h06cmbaGb0W-65" value="0" style="rounded=1;whiteSpace=wrap;html=1;" vertex="1" parent="1">
          <mxGeometry x="300" y="287" width="40" height="30" as="geometry" />
        </mxCell>
        <mxCell id="VuhoeXik2h06cmbaGb0W-66" value="start" style="text;html=1;strokeColor=none;fillColor=none;align=center;verticalAlign=middle;whiteSpace=wrap;rounded=0;" vertex="1" parent="1">
          <mxGeometry x="290" y="260" width="60" height="30" as="geometry" />
        </mxCell>
        <mxCell id="VuhoeXik2h06cmbaGb0W-81" style="edgeStyle=orthogonalEdgeStyle;rounded=0;orthogonalLoop=1;jettySize=auto;html=1;fontFamily=Helvetica;fontSize=12;fontColor=default;" edge="1" parent="1" source="VuhoeXik2h06cmbaGb0W-70" target="VuhoeXik2h06cmbaGb0W-80">
          <mxGeometry relative="1" as="geometry" />
        </mxCell>
        <mxCell id="VuhoeXik2h06cmbaGb0W-70" value="Row Blue Print" style="rounded=1;whiteSpace=wrap;html=1;" vertex="1" parent="1">
          <mxGeometry x="560" y="180" width="50" height="93" as="geometry" />
        </mxCell>
        <mxCell id="VuhoeXik2h06cmbaGb0W-74" value="" style="edgeStyle=orthogonalEdgeStyle;rounded=0;orthogonalLoop=1;jettySize=auto;html=1;fontFamily=Helvetica;fontSize=12;fontColor=default;" edge="1" parent="1" source="VuhoeXik2h06cmbaGb0W-72" target="VuhoeXik2h06cmbaGb0W-70">
          <mxGeometry relative="1" as="geometry" />
        </mxCell>
        <mxCell id="VuhoeXik2h06cmbaGb0W-72" value="IDS Cell" style="rounded=1;whiteSpace=wrap;html=1;" vertex="1" parent="1">
          <mxGeometry x="480" y="184" width="40" height="30" as="geometry" />
        </mxCell>
        <mxCell id="VuhoeXik2h06cmbaGb0W-79" style="edgeStyle=orthogonalEdgeStyle;rounded=0;orthogonalLoop=1;jettySize=auto;html=1;entryX=0;entryY=0.75;entryDx=0;entryDy=0;fontFamily=Helvetica;fontSize=12;fontColor=default;" edge="1" parent="1" source="VuhoeXik2h06cmbaGb0W-73" target="VuhoeXik2h06cmbaGb0W-70">
          <mxGeometry relative="1" as="geometry" />
        </mxCell>
        <mxCell id="VuhoeXik2h06cmbaGb0W-73" value="IDS Cell" style="rounded=1;whiteSpace=wrap;html=1;" vertex="1" parent="1">
          <mxGeometry x="480" y="234" width="40" height="30" as="geometry" />
        </mxCell>
        <mxCell id="VuhoeXik2h06cmbaGb0W-76" style="edgeStyle=orthogonalEdgeStyle;rounded=0;orthogonalLoop=1;jettySize=auto;html=1;entryX=0;entryY=0.5;entryDx=0;entryDy=0;fontFamily=Helvetica;fontSize=12;fontColor=default;" edge="1" parent="1" source="VuhoeXik2h06cmbaGb0W-75" target="VuhoeXik2h06cmbaGb0W-72">
          <mxGeometry relative="1" as="geometry" />
        </mxCell>
        <mxCell id="VuhoeXik2h06cmbaGb0W-78" style="edgeStyle=orthogonalEdgeStyle;rounded=0;orthogonalLoop=1;jettySize=auto;html=1;entryX=0;entryY=0.5;entryDx=0;entryDy=0;fontFamily=Helvetica;fontSize=12;fontColor=default;" edge="1" parent="1" source="VuhoeXik2h06cmbaGb0W-75" target="VuhoeXik2h06cmbaGb0W-73">
          <mxGeometry relative="1" as="geometry" />
        </mxCell>
        <mxCell id="VuhoeXik2h06cmbaGb0W-75" value="Cell Style 1" style="strokeWidth=1;shadow=0;dashed=0;align=center;html=1;shape=mxgraph.mockup.forms.comboBox;strokeColor=#999999;fillColor=#ddeeff;align=left;fillColor2=#aaddff;mainText=;fontColor=#666666;fontSize=17;spacingLeft=3;labelBackgroundColor=default;fontFamily=Helvetica;" vertex="1" parent="1">
          <mxGeometry x="280" y="184" width="140" height="30" as="geometry" />
        </mxCell>
        <mxCell id="VuhoeXik2h06cmbaGb0W-107" style="edgeStyle=orthogonalEdgeStyle;rounded=0;orthogonalLoop=1;jettySize=auto;html=1;entryX=0;entryY=0.25;entryDx=0;entryDy=0;fontFamily=Helvetica;fontSize=12;fontColor=default;" edge="1" parent="1" source="VuhoeXik2h06cmbaGb0W-80" target="VuhoeXik2h06cmbaGb0W-106">
          <mxGeometry relative="1" as="geometry" />
        </mxCell>
        <mxCell id="VuhoeXik2h06cmbaGb0W-80" value="IDS Rows" style="rounded=1;whiteSpace=wrap;html=1;" vertex="1" parent="1">
          <mxGeometry x="680" y="402" width="90" height="50" as="geometry" />
        </mxCell>
        <mxCell id="VuhoeXik2h06cmbaGb0W-108" style="edgeStyle=orthogonalEdgeStyle;rounded=0;orthogonalLoop=1;jettySize=auto;html=1;fontFamily=Helvetica;fontSize=12;fontColor=default;" edge="1" parent="1" source="VuhoeXik2h06cmbaGb0W-83" target="VuhoeXik2h06cmbaGb0W-106">
          <mxGeometry relative="1" as="geometry" />
        </mxCell>
        <mxCell id="VuhoeXik2h06cmbaGb0W-83" value="IDS Rows" style="rounded=1;whiteSpace=wrap;html=1;" vertex="1" parent="1">
          <mxGeometry x="680" y="497" width="90" height="50" as="geometry" />
        </mxCell>
        <mxCell id="VuhoeXik2h06cmbaGb0W-87" style="edgeStyle=orthogonalEdgeStyle;rounded=0;orthogonalLoop=1;jettySize=auto;html=1;exitX=1;exitY=0.5;exitDx=0;exitDy=0;entryX=0.25;entryY=0;entryDx=0;entryDy=0;fontFamily=Helvetica;fontSize=12;fontColor=default;" edge="1" parent="1" source="VuhoeXik2h06cmbaGb0W-85" target="VuhoeXik2h06cmbaGb0W-80">
          <mxGeometry relative="1" as="geometry" />
        </mxCell>
        <mxCell id="VuhoeXik2h06cmbaGb0W-85" value="True" style="rounded=1;whiteSpace=wrap;html=1;" vertex="1" parent="1">
          <mxGeometry x="590" y="357" width="40" height="30" as="geometry" />
        </mxCell>
        <mxCell id="VuhoeXik2h06cmbaGb0W-88" value="Header?" style="text;html=1;strokeColor=none;fillColor=none;align=center;verticalAlign=middle;whiteSpace=wrap;rounded=0;labelBackgroundColor=default;fontFamily=Helvetica;fontSize=12;fontColor=default;" vertex="1" parent="1">
          <mxGeometry x="640" y="372" width="60" height="30" as="geometry" />
        </mxCell>
        <mxCell id="VuhoeXik2h06cmbaGb0W-90" value="" style="endArrow=none;dashed=1;html=1;dashPattern=1 3;strokeWidth=2;rounded=0;fontFamily=Helvetica;fontSize=12;fontColor=default;" edge="1" parent="1">
          <mxGeometry width="50" height="50" relative="1" as="geometry">
            <mxPoint x="540" y="290" as="sourcePoint" />
            <mxPoint x="540" y="260" as="targetPoint" />
          </mxGeometry>
        </mxCell>
        <mxCell id="VuhoeXik2h06cmbaGb0W-93" value="Columns" style="text;html=1;strokeColor=none;fillColor=none;align=center;verticalAlign=middle;whiteSpace=wrap;rounded=0;dashed=1;dashPattern=1 2;labelBackgroundColor=default;fontFamily=Helvetica;fontSize=12;fontColor=default;" vertex="1" parent="1">
          <mxGeometry x="455" y="130" width="60" height="30" as="geometry" />
        </mxCell>
        <mxCell id="VuhoeXik2h06cmbaGb0W-105" style="edgeStyle=orthogonalEdgeStyle;rounded=0;orthogonalLoop=1;jettySize=auto;html=1;fontFamily=Helvetica;fontSize=12;fontColor=default;" edge="1" parent="1" source="VuhoeXik2h06cmbaGb0W-95">
          <mxGeometry relative="1" as="geometry">
            <mxPoint x="720" y="550" as="targetPoint" />
          </mxGeometry>
        </mxCell>
        <mxCell id="VuhoeXik2h06cmbaGb0W-95" value="Row Blue Print" style="rounded=1;whiteSpace=wrap;html=1;" vertex="1" parent="1">
          <mxGeometry x="560" y="570" width="50" height="93" as="geometry" />
        </mxCell>
        <mxCell id="VuhoeXik2h06cmbaGb0W-96" value="" style="edgeStyle=orthogonalEdgeStyle;rounded=0;orthogonalLoop=1;jettySize=auto;html=1;fontFamily=Helvetica;fontSize=12;fontColor=default;" edge="1" parent="1" source="VuhoeXik2h06cmbaGb0W-97" target="VuhoeXik2h06cmbaGb0W-95">
          <mxGeometry relative="1" as="geometry" />
        </mxCell>
        <mxCell id="VuhoeXik2h06cmbaGb0W-97" value="IDS Cell" style="rounded=1;whiteSpace=wrap;html=1;" vertex="1" parent="1">
          <mxGeometry x="480" y="574" width="40" height="30" as="geometry" />
        </mxCell>
        <mxCell id="VuhoeXik2h06cmbaGb0W-98" style="edgeStyle=orthogonalEdgeStyle;rounded=0;orthogonalLoop=1;jettySize=auto;html=1;entryX=0;entryY=0.75;entryDx=0;entryDy=0;fontFamily=Helvetica;fontSize=12;fontColor=default;" edge="1" parent="1" source="VuhoeXik2h06cmbaGb0W-99" target="VuhoeXik2h06cmbaGb0W-95">
          <mxGeometry relative="1" as="geometry" />
        </mxCell>
        <mxCell id="VuhoeXik2h06cmbaGb0W-99" value="IDS Cell" style="rounded=1;whiteSpace=wrap;html=1;" vertex="1" parent="1">
          <mxGeometry x="480" y="624" width="40" height="30" as="geometry" />
        </mxCell>
        <mxCell id="VuhoeXik2h06cmbaGb0W-100" style="edgeStyle=orthogonalEdgeStyle;rounded=0;orthogonalLoop=1;jettySize=auto;html=1;entryX=0;entryY=0.5;entryDx=0;entryDy=0;fontFamily=Helvetica;fontSize=12;fontColor=default;" edge="1" parent="1" source="VuhoeXik2h06cmbaGb0W-102" target="VuhoeXik2h06cmbaGb0W-97">
          <mxGeometry relative="1" as="geometry" />
        </mxCell>
        <mxCell id="VuhoeXik2h06cmbaGb0W-102" value="Cell Style 2" style="strokeWidth=1;shadow=0;dashed=0;align=center;html=1;shape=mxgraph.mockup.forms.comboBox;strokeColor=#999999;fillColor=#ddeeff;align=left;fillColor2=#aaddff;mainText=;fontColor=#666666;fontSize=17;spacingLeft=3;labelBackgroundColor=default;fontFamily=Helvetica;" vertex="1" parent="1">
          <mxGeometry x="230" y="574" width="130" height="30" as="geometry" />
        </mxCell>
        <mxCell id="VuhoeXik2h06cmbaGb0W-103" value="" style="endArrow=none;dashed=1;html=1;dashPattern=1 3;strokeWidth=2;rounded=0;fontFamily=Helvetica;fontSize=12;fontColor=default;" edge="1" parent="1">
          <mxGeometry width="50" height="50" relative="1" as="geometry">
            <mxPoint x="540" y="680" as="sourcePoint" />
            <mxPoint x="540" y="650" as="targetPoint" />
          </mxGeometry>
        </mxCell>
        <mxCell id="VuhoeXik2h06cmbaGb0W-104" value="Columns" style="text;html=1;strokeColor=none;fillColor=none;align=center;verticalAlign=middle;whiteSpace=wrap;rounded=0;dashed=1;dashPattern=1 2;labelBackgroundColor=default;fontFamily=Helvetica;fontSize=12;fontColor=default;" vertex="1" parent="1">
          <mxGeometry x="455" y="520" width="60" height="30" as="geometry" />
        </mxCell>
        <mxCell id="VuhoeXik2h06cmbaGb0W-115" style="edgeStyle=orthogonalEdgeStyle;rounded=0;orthogonalLoop=1;jettySize=auto;html=1;exitX=1;exitY=0.5;exitDx=0;exitDy=0;entryX=0;entryY=0.5;entryDx=0;entryDy=0;fontFamily=Helvetica;fontSize=12;fontColor=default;" edge="1" parent="1" source="VuhoeXik2h06cmbaGb0W-106" target="VuhoeXik2h06cmbaGb0W-114">
          <mxGeometry relative="1" as="geometry" />
        </mxCell>
        <mxCell id="VuhoeXik2h06cmbaGb0W-106" value="IDS Table" style="rounded=1;whiteSpace=wrap;html=1;" vertex="1" parent="1">
          <mxGeometry x="870" y="404" width="120" height="93" as="geometry" />
        </mxCell>
        <mxCell id="VuhoeXik2h06cmbaGb0W-109" value="" style="endArrow=none;dashed=1;html=1;dashPattern=1 3;strokeWidth=2;rounded=0;fontFamily=Helvetica;fontSize=12;fontColor=default;" edge="1" parent="1">
          <mxGeometry width="50" height="50" relative="1" as="geometry">
            <mxPoint x="840" y="487" as="sourcePoint" />
            <mxPoint x="840" y="457" as="targetPoint" />
          </mxGeometry>
        </mxCell>
        <mxCell id="VuhoeXik2h06cmbaGb0W-111" style="edgeStyle=orthogonalEdgeStyle;rounded=0;orthogonalLoop=1;jettySize=auto;html=1;entryX=0.5;entryY=0;entryDx=0;entryDy=0;fontFamily=Helvetica;fontSize=12;fontColor=default;" edge="1" parent="1" source="VuhoeXik2h06cmbaGb0W-110" target="VuhoeXik2h06cmbaGb0W-106">
          <mxGeometry relative="1" as="geometry">
            <Array as="points">
              <mxPoint x="930" y="342" />
            </Array>
          </mxGeometry>
        </mxCell>
        <mxCell id="VuhoeXik2h06cmbaGb0W-110" value="Table Style" style="strokeWidth=1;shadow=0;dashed=0;align=center;html=1;shape=mxgraph.mockup.forms.comboBox;strokeColor=#999999;fillColor=#ddeeff;align=left;fillColor2=#aaddff;mainText=;fontColor=#666666;fontSize=17;spacingLeft=3;labelBackgroundColor=default;fontFamily=Helvetica;" vertex="1" parent="1">
          <mxGeometry x="750" y="327" width="130" height="30" as="geometry" />
        </mxCell>
        <mxCell id="VuhoeXik2h06cmbaGb0W-112" value="IDS Template" style="rounded=1;whiteSpace=wrap;html=1;" vertex="1" parent="1">
          <mxGeometry x="1130" y="404" width="120" height="93" as="geometry" />
        </mxCell>
        <mxCell id="VuhoeXik2h06cmbaGb0W-116" style="edgeStyle=orthogonalEdgeStyle;rounded=0;orthogonalLoop=1;jettySize=auto;html=1;exitX=1;exitY=0.5;exitDx=0;exitDy=0;entryX=0;entryY=0.5;entryDx=0;entryDy=0;fontFamily=Helvetica;fontSize=12;fontColor=default;" edge="1" parent="1" source="VuhoeXik2h06cmbaGb0W-114" target="VuhoeXik2h06cmbaGb0W-112">
          <mxGeometry relative="1" as="geometry" />
        </mxCell>
        <mxCell id="VuhoeXik2h06cmbaGb0W-114" value="IF?" style="rhombus;whiteSpace=wrap;html=1;dashed=1;dashPattern=1 2;labelBackgroundColor=default;fontFamily=Helvetica;fontSize=12;fontColor=default;strokeColor=default;strokeWidth=2;fillColor=default;" vertex="1" parent="1">
          <mxGeometry x="1030" y="425.75" width="49.5" height="49.5" as="geometry" />
        </mxCell>
        <mxCell id="VuhoeXik2h06cmbaGb0W-125" style="edgeStyle=orthogonalEdgeStyle;rounded=0;orthogonalLoop=1;jettySize=auto;html=1;entryX=0.5;entryY=0;entryDx=0;entryDy=0;fontFamily=Helvetica;fontSize=12;fontColor=default;" edge="1" parent="1" source="VuhoeXik2h06cmbaGb0W-117" target="VuhoeXik2h06cmbaGb0W-114">
          <mxGeometry relative="1" as="geometry">
            <Array as="points">
              <mxPoint x="1055" y="372" />
            </Array>
          </mxGeometry>
        </mxCell>
        <mxCell id="VuhoeXik2h06cmbaGb0W-117" value="True" style="rounded=1;whiteSpace=wrap;html=1;" vertex="1" parent="1">
          <mxGeometry x="1000" y="357" width="40" height="30" as="geometry" />
        </mxCell>
        <mxCell id="VuhoeXik2h06cmbaGb0W-128" style="edgeStyle=orthogonalEdgeStyle;rounded=0;orthogonalLoop=1;jettySize=auto;html=1;entryX=0;entryY=0.5;entryDx=0;entryDy=0;fontFamily=Helvetica;fontSize=12;fontColor=default;" edge="1" parent="1" source="VuhoeXik2h06cmbaGb0W-119" target="VuhoeXik2h06cmbaGb0W-99">
          <mxGeometry relative="1" as="geometry" />
        </mxCell>
        <mxCell id="VuhoeXik2h06cmbaGb0W-119" value="IF?" style="rhombus;whiteSpace=wrap;html=1;dashed=1;dashPattern=1 2;labelBackgroundColor=default;fontFamily=Helvetica;fontSize=12;fontColor=default;strokeColor=default;strokeWidth=2;fillColor=default;direction=south;" vertex="1" parent="1">
          <mxGeometry x="394" y="649" width="56" height="56" as="geometry" />
        </mxCell>
        <mxCell id="VuhoeXik2h06cmbaGb0W-122" style="edgeStyle=orthogonalEdgeStyle;rounded=0;orthogonalLoop=1;jettySize=auto;html=1;entryX=0.5;entryY=1;entryDx=0;entryDy=0;fontFamily=Helvetica;fontSize=12;fontColor=default;" edge="1" parent="1" source="VuhoeXik2h06cmbaGb0W-120" target="VuhoeXik2h06cmbaGb0W-119">
          <mxGeometry relative="1" as="geometry" />
        </mxCell>
        <mxCell id="VuhoeXik2h06cmbaGb0W-120" value="Cell Style 3" style="strokeWidth=1;shadow=0;dashed=0;align=center;html=1;shape=mxgraph.mockup.forms.comboBox;strokeColor=#999999;fillColor=#ddeeff;align=left;fillColor2=#aaddff;mainText=;fontColor=#666666;fontSize=17;spacingLeft=3;labelBackgroundColor=default;fontFamily=Helvetica;" vertex="1" parent="1">
          <mxGeometry x="230" y="662" width="130" height="30" as="geometry" />
        </mxCell>
        <mxCell id="VuhoeXik2h06cmbaGb0W-124" style="edgeStyle=orthogonalEdgeStyle;rounded=0;orthogonalLoop=1;jettySize=auto;html=1;entryX=1;entryY=0.5;entryDx=0;entryDy=0;fontFamily=Helvetica;fontSize=12;fontColor=default;" edge="1" parent="1" source="VuhoeXik2h06cmbaGb0W-123" target="VuhoeXik2h06cmbaGb0W-119">
          <mxGeometry relative="1" as="geometry" />
        </mxCell>
        <mxCell id="VuhoeXik2h06cmbaGb0W-123" value="Cell Style 4" style="strokeWidth=1;shadow=0;dashed=0;align=center;html=1;shape=mxgraph.mockup.forms.comboBox;strokeColor=#999999;fillColor=#ddeeff;align=left;fillColor2=#aaddff;mainText=;fontColor=#666666;fontSize=17;spacingLeft=3;labelBackgroundColor=default;fontFamily=Helvetica;" vertex="1" parent="1">
          <mxGeometry x="230" y="710" width="130" height="30" as="geometry" />
        </mxCell>
        <mxCell id="VuhoeXik2h06cmbaGb0W-127" style="edgeStyle=orthogonalEdgeStyle;rounded=0;orthogonalLoop=1;jettySize=auto;html=1;entryX=0;entryY=0.5;entryDx=0;entryDy=0;fontFamily=Helvetica;fontSize=12;fontColor=default;" edge="1" parent="1" source="VuhoeXik2h06cmbaGb0W-126" target="VuhoeXik2h06cmbaGb0W-119">
          <mxGeometry relative="1" as="geometry" />
        </mxCell>
        <mxCell id="VuhoeXik2h06cmbaGb0W-126" value="True" style="rounded=1;whiteSpace=wrap;html=1;" vertex="1" parent="1">
          <mxGeometry x="350" y="614" width="40" height="30" as="geometry" />
        </mxCell>
      </root>
    </mxGraphModel>
  </diagram>
</mxfile>
